<mxfile host="app.diagrams.net" modified="2024-02-22T15:25:46.482Z" agent="Mozilla/5.0 (Windows NT 10.0; Win64; x64) AppleWebKit/537.36 (KHTML, like Gecko) Chrome/121.0.0.0 Safari/537.36" etag="nYiMywqvhxdmov2c24QA" version="23.0.1" type="device">
  <diagram name="general_schematic" id="M4MxrfvtZ4ze2xyHAk0H">
    <mxGraphModel dx="989" dy="597" grid="1" gridSize="10" guides="1" tooltips="1" connect="1" arrows="1" fold="1" page="1" pageScale="1" pageWidth="827" pageHeight="1169" math="0" shadow="0">
      <root>
        <mxCell id="0" />
        <mxCell id="1" parent="0" />
        <mxCell id="yRIs_ptTsR_pQbufYXkL-1" value="" style="rounded=1;whiteSpace=wrap;html=1;arcSize=4;fillColor=#f5f5f5;fontColor=#333333;strokeColor=#666666;" vertex="1" parent="1">
          <mxGeometry x="278.4090909090909" y="240" width="401.5909090909091" height="330" as="geometry" />
        </mxCell>
        <mxCell id="yRIs_ptTsR_pQbufYXkL-2" value="FPGA" style="rounded=1;whiteSpace=wrap;html=1;arcSize=4;" vertex="1" parent="1">
          <mxGeometry x="420.90909090909093" y="365.7142857142857" width="116.5909090909091" height="188.5714285714286" as="geometry" />
        </mxCell>
        <mxCell id="yRIs_ptTsR_pQbufYXkL-3" value="PMOD Analog" style="rounded=1;whiteSpace=wrap;html=1;arcSize=4;fillColor=#d5e8d4;strokeColor=#82b366;" vertex="1" parent="1">
          <mxGeometry x="291.3636363636364" y="365.7142857142857" width="116.5909090909091" height="78.57142857142858" as="geometry" />
        </mxCell>
        <mxCell id="yRIs_ptTsR_pQbufYXkL-4" value="PMOD A" style="rounded=1;whiteSpace=wrap;html=1;arcSize=4;fillColor=#fff2cc;strokeColor=#d6b656;" vertex="1" parent="1">
          <mxGeometry x="291.3636363636364" y="475.7142857142857" width="116.5909090909091" height="78.57142857142858" as="geometry" />
        </mxCell>
        <mxCell id="yRIs_ptTsR_pQbufYXkL-5" value="HDMI out" style="rounded=1;whiteSpace=wrap;html=1;arcSize=4;fillColor=#dae8fc;strokeColor=#6c8ebf;" vertex="1" parent="1">
          <mxGeometry x="550.4545454545455" y="420.7142857142857" width="116.5909090909091" height="78.57142857142858" as="geometry" />
        </mxCell>
        <mxCell id="yRIs_ptTsR_pQbufYXkL-6" value="Nexys Video" style="rounded=0;whiteSpace=wrap;html=1;strokeColor=none;fillColor=none;fontSize=15;fontStyle=2" vertex="1" parent="1">
          <mxGeometry x="278.4090909090909" y="240" width="142.5" height="125.71428571428574" as="geometry" />
        </mxCell>
        <mxCell id="yRIs_ptTsR_pQbufYXkL-8" value="DDR3" style="rounded=1;whiteSpace=wrap;html=1;arcSize=4;" vertex="1" parent="1">
          <mxGeometry x="420.90909090909093" y="255.71428571428572" width="116.5909090909091" height="94.2857142857143" as="geometry" />
        </mxCell>
        <mxCell id="yRIs_ptTsR_pQbufYXkL-9" value="Rotary Encoder" style="rounded=1;whiteSpace=wrap;html=1;arcSize=4;fillColor=#fff2cc;strokeColor=#d6b656;" vertex="1" parent="1">
          <mxGeometry x="120" y="477.85999999999996" width="120" height="74.29" as="geometry" />
        </mxCell>
        <mxCell id="yRIs_ptTsR_pQbufYXkL-10" value="" style="shape=flexArrow;endArrow=classic;html=1;rounded=0;fillColor=#333333;strokeColor=none;exitX=1;exitY=0.5;exitDx=0;exitDy=0;" edge="1" parent="1">
          <mxGeometry width="50" height="50" relative="1" as="geometry">
            <mxPoint x="226.59" y="780" as="sourcePoint" />
            <mxPoint x="278.409090909091" y="780.0697445623225" as="targetPoint" />
          </mxGeometry>
        </mxCell>
        <mxCell id="yRIs_ptTsR_pQbufYXkL-14" value="" style="shape=flexArrow;endArrow=classic;html=1;rounded=0;fillColor=#fff2cc;strokeColor=#d6b656;entryX=0;entryY=0.5;entryDx=0;entryDy=0;" edge="1" parent="1">
          <mxGeometry width="50" height="50" relative="1" as="geometry">
            <mxPoint x="240" y="516.8000000000001" as="sourcePoint" />
            <mxPoint x="291.3636363636365" y="517.15" as="targetPoint" />
          </mxGeometry>
        </mxCell>
        <mxCell id="yRIs_ptTsR_pQbufYXkL-15" value="4x Probes" style="rounded=1;whiteSpace=wrap;html=1;arcSize=4;fillColor=#d5e8d4;strokeColor=#82b366;" vertex="1" parent="1">
          <mxGeometry x="120" y="367.85999999999996" width="120" height="74.29" as="geometry" />
        </mxCell>
        <mxCell id="yRIs_ptTsR_pQbufYXkL-16" value="" style="shape=flexArrow;endArrow=classic;html=1;rounded=0;fillColor=#d5e8d4;strokeColor=#82b366;entryX=0;entryY=0.5;entryDx=0;entryDy=0;" edge="1" parent="1">
          <mxGeometry width="50" height="50" relative="1" as="geometry">
            <mxPoint x="240" y="404.71000000000004" as="sourcePoint" />
            <mxPoint x="291.3636363636365" y="405.05999999999995" as="targetPoint" />
          </mxGeometry>
        </mxCell>
        <mxCell id="yRIs_ptTsR_pQbufYXkL-17" value="Screen&lt;br&gt;(1920x1080)" style="rounded=1;whiteSpace=wrap;html=1;arcSize=4;fillColor=#dae8fc;strokeColor=#6c8ebf;" vertex="1" parent="1">
          <mxGeometry x="720" y="422.85999999999996" width="120" height="74.29" as="geometry" />
        </mxCell>
        <mxCell id="yRIs_ptTsR_pQbufYXkL-18" value="" style="shape=flexArrow;endArrow=classic;html=1;rounded=0;fillColor=#dae8fc;strokeColor=#6c8ebf;entryX=0;entryY=0.5;entryDx=0;entryDy=0;exitX=1;exitY=0.5;exitDx=0;exitDy=0;" edge="1" parent="1" source="yRIs_ptTsR_pQbufYXkL-5">
          <mxGeometry width="50" height="50" relative="1" as="geometry">
            <mxPoint x="668.64" y="459.66" as="sourcePoint" />
            <mxPoint x="720.0036363636365" y="460.00999999999993" as="targetPoint" />
          </mxGeometry>
        </mxCell>
      </root>
    </mxGraphModel>
  </diagram>
</mxfile>
